<?xml version="1.0" encoding="utf-8"?>
<!-- Generator: Adobe Illustrator 26.4.1, SVG Export Plug-In . SVG Version: 6.00 Build 0)  -->
<svg version="1.1" id="Слой_1" xmlns="http://www.w3.org/2000/svg" xmlns:xlink="http://www.w3.org/1999/xlink" x="0px" y="0px"
	 viewBox="0 0 50 50" style="enable-background:new 0 0 50 50;" xml:space="preserve">
<style type="text/css">
	.st0{fill:none;stroke:#000000;stroke-linejoin:round;stroke-miterlimit:10;}
	.st1{fill:none;stroke:#000000;stroke-miterlimit:10;}
</style>
<g>
	<path class="st0" d="M36,37H14c-2.2,0-4-1.8-4-4V20c0-2.2,1.8-4,4-4h22c2.2,0,4,1.8,4,4v13C40,35.2,38.2,37,36,37z"/>
	<path d="M31.5,16c-4.3,0-8.7,0-13,0c0.7-2.4,1.2-3,1.6-3c0,0,0.1,0,0.8,0c0.3,0,0.6,0,0.8,0c2.2,0,4.3,0,6.5,0c0.2,0,0.5,0,0.8,0
		c0.7,0,0.8,0,0.8,0C30.3,13,30.8,13.6,31.5,16z"/>
	<circle class="st1" cx="25" cy="26" r="6.2"/>
	<circle cx="14.5" cy="19.5" r="1.5"/>
</g>
</svg>
